# xmcd CD database file generated by Grip 2.91
# 
# Track frame offsets:
#       182
#       16152
#       45110
#       59542
#       73652
#       88305
#       101730
#       116087
#       129675
#       145647
#       161142
#       176967
#       192650
#       207020
#       221705
#       235960
# 
# Disc length: 3347 seconds
# 
# Revision: 3
# Processed by: cddbd v1.4b41PL1 Copyright (c) Steve Scherf et al.
# Submitted via: Grip 2.91
# 
DISCID=f30d1110
DTITLE=Bessie Smith - Bessie's Blues
DYEAR=1900
DGENRE=
TTITLE0='Tain't Nobody's Business If I Do
TTITLE1=Empty Bed Blues
TTITLE2=Young Woman's Blues
TTITLE3=Gulf Coast Blues
TTITLE4=St. Louis Blues
TTITLE5=Baby, Won't You Please Come Home
TTITLE6=Easy Come, Easy Go Blues
TTITLE7=Nobody Knows You When You're Down And Out
TTITLE8=Gimme A Pigfoot (And A Bottle Of Beer)
TTITLE9=Down Hearted Blues
TTITLE10=You've Been A Good Ole Wagon
TTITLE11=Do Your Duty
TTITLE12=Black Mountain Blues
TTITLE13=Rockin' Chair Blues
TTITLE14=Muddy Water (A Mississippi Moan)
TTITLE15=I Ain't Gonna Play No Second Fiddle
EXTD=
EXTT0=
EXTT1=
EXTT2=
EXTT3=
EXTT4=
EXTT5=
EXTT6=
EXTT7=
EXTT8=
EXTT9=
EXTT10=
EXTT11=
EXTT12=
EXTT13=
EXTT14=
EXTT15=
PLAYORDER=
